<svg xmlns="http://www.w3.org/2000/svg" xmlns:xlink="http://www.w3.org/1999/xlink" width="500" zoomAndPan="magnify" viewBox="0 0 375 374.999991" height="500" preserveAspectRatio="xMidYMid meet" version="1.0"><defs><clipPath id="da3e8a9ef4"><path d="M 18.238281 22.0625 L 130.738281 22.0625 L 130.738281 134.5625 L 18.238281 134.5625 Z M 18.238281 22.0625 " clip-rule="nonzero"/></clipPath></defs><rect x="-37.5" width="450" fill="#ffffff" y="-37.499999" height="449.999989" fill-opacity="1"/><rect x="-37.5" width="450" fill="#ffffff" y="-37.499999" height="449.999989" fill-opacity="1"/><g clip-path="url(#da3e8a9ef4)"><path fill="#ffffff" d="M 18.238281 22.0625 L 130.738281 22.0625 L 130.738281 134.5625 L 18.238281 134.5625 Z M 18.238281 22.0625 " fill-opacity="1" fill-rule="nonzero"/></g><path fill="#1d1d1d" d="M 188.648438 0 L 34.515625 102.183594 L 103.089844 102.183594 L 188.042969 45.867188 L 334.273438 147.726562 L 334.273438 338.425781 L 236.574219 338.425781 L 182.882812 266.082031 C 210.765625 257.125 230.773438 233.160156 230.773438 205.066406 C 230.773438 169.351562 198.425781 140.292969 158.660156 140.292969 L 0 140.292969 L 0 375 L 180.285156 375 L 153.132812 338.425781 L 40.726562 338.425781 L 40.726562 176.867188 L 158.660156 176.867188 C 175.964844 176.867188 190.050781 189.515625 190.050781 205.066406 C 190.050781 220.617188 175.964844 233.265625 158.660156 233.265625 L 109.582031 233.265625 L 214.785156 375 L 375 375 L 375 129.800781 Z M 188.648438 0 " fill-opacity="1" fill-rule="nonzero"/></svg>